<svg xmlns="http://www.w3.org/2000/svg" viewBox="0 0 96 96">
  <defs>
    <clipPath id="shield"><path d="M48 4 L88 14 V52 C88 75 67 88 48 93 C29 88 8 75 8 52 V14 Z"/></clipPath>
  </defs>
  <path d="M48 4 L88 14 V52 C88 75 67 88 48 93 C29 88 8 75 8 52 V14 Z" fill="#ffd600"/>
  <g clip-path="url(#shield)">
    <rect x="72" y="-10" width="13" height="120" fill="#0d47a1" transform="skewX(-8)"/>
    <rect x="89" y="-10" width="4" height="120" fill="#0d47a1" transform="skewX(-8)"/>
  </g>
  <path d="M48 4 L88 14 V52 C88 75 67 88 48 93 C29 88 8 75 8 52 V14 Z" fill="none" stroke="rgba(9,9,9,0.2)" stroke-width="2"/>
  <text x="38" y="56" text-anchor="middle" font-family="'Arial Black','Arial',sans-serif" font-style="italic" font-weight="900" font-size="22" letter-spacing="-1" fill="#090909">USG</text>
</svg>
